<svg xmlns="http://www.w3.org/2000/svg" viewBox="0 0 413.33 310"><defs><style>.cls-1{isolation:isolate;}.cls-2{fill:#ebdce6;}.cls-3{fill:#1f1232;}.cls-4{fill:#783c5a;}.cls-5{fill:#82d2dc;}.cls-6{fill:#783c5b;}.cls-10,.cls-7{fill:#f05537;}.cls-8{fill:#1b1030;}.cls-9{fill:#fff;}.cls-10,.cls-13{opacity:0.5;}.cls-10,.cls-12,.cls-13{mix-blend-mode:multiply;}.cls-11{fill:#faa520;}.cls-14{fill:#b29eb6;}</style></defs><title>Artboard 3 copy</title><g class="cls-1"><g id="Layer_1" data-name="Layer 1"><rect class="cls-2" width="413.33" height="310"/><path class="cls-3" d="M201.21,230.53c-19.64.5-28.31-7.23-37.45-15.39-8.7-7.77-17.68-15.8-36.73-15.8l-1.55,0c-15.83.35-31.19,7.34-45.64,20.76a136.08,136.08,0,0,0-21.5,26.28c-.42.65-.81,1.27-.94,1.43a.78.78,0,0,0,.52,1.35.72.72,0,0,0,.4-.12c.24-.15.35-.32,1.32-1.82a134.22,134.22,0,0,1,21.26-26c14.16-13.17,29.17-20,44.62-20.36,19.52-.42,28.1,7.25,37.21,15.39s18.3,16.34,38.75,15.77Z"/><path class="cls-3" d="M348.63,92.76a3.63,3.63,0,0,0-1.7,6.84,99.91,99.91,0,0,1-10.36,26.13c-6.8,11.76-19,26.07-38.59,28.6.06.46.13.92.2,1.37,16.05-2.08,29.7-12.16,39.6-29.27A101.91,101.91,0,0,0,348.27,100l.36,0a3.63,3.63,0,0,0,0-7.26Zm0,5.87a2.24,2.24,0,1,1,2.23-2.24A2.25,2.25,0,0,1,348.63,98.63Z"/><path class="cls-4" d="M40.85,222.38Z"/><path class="cls-4" d="M41,222.29Z"/><path class="cls-5" d="M94.53,224.26H37.46a1.67,1.67,0,0,1-1.66-1.67V171a1.67,1.67,0,0,1,1.66-1.67H94.53A1.67,1.67,0,0,1,96.2,171v51.64a1.67,1.67,0,0,1-1.67,1.67"/><path class="cls-6" d="M384.17,153.67H336.61A1.67,1.67,0,0,1,335,152V116.3a1.67,1.67,0,0,1,1.66-1.66h47.56a1.67,1.67,0,0,1,1.67,1.66V152a1.67,1.67,0,0,1-1.67,1.66"/><path class="cls-7" d="M311.42,113.38h-69a1.67,1.67,0,0,1-1.67-1.67V86.22a1.67,1.67,0,0,1,1.67-1.67h69a1.67,1.67,0,0,1,1.66,1.67v25.49a1.67,1.67,0,0,1-1.66,1.67"/><rect class="cls-7" x="43.88" y="176.27" width="8.32" height="19.58"/><rect class="cls-7" x="55.96" y="183.08" width="8.32" height="12.77"/><rect class="cls-7" x="67.86" y="187.57" width="8.32" height="8.28"/><rect class="cls-7" x="79.79" y="180.08" width="8.32" height="15.78"/><rect class="cls-5" x="340.87" y="139.49" width="6.32" height="6.32"/><rect class="cls-5" x="351.78" y="133.05" width="6.32" height="12.76"/><rect class="cls-5" x="362.06" y="122.5" width="6.32" height="23.31"/><rect class="cls-5" x="372.96" y="128.35" width="6.32" height="17.46"/><path class="cls-5" d="M276.46,109.78c-2.51,0-3.28-5.41-4.26-14.32-.55-5.07-1.31-12-2.69-12-1.15,0-1.74,3-2.31,5.86-1,4.94-2.19,11.09-7.11,11.09v-1c4.11,0,5.2-5.47,6.15-10.3.73-3.72,1.31-6.65,3.27-6.65,2.15,0,2.79,4.9,3.67,12.9.62,5.67,1.47,13.43,3.28,13.43s2.36-8.53,2.87-14.76c.88-10.64,1.61-17.09,4.38-17.09,2.93,0,3.48,5.92,4.13,12.78.53,5.66,1.18,12.69,3.55,12.69s2.7-5.11,3.05-9.62c.4-5.32.78-10.33,3.9-10.33,2.84,0,3.21,3.67,3.61,7.55.47,4.62.95,9.4,5.08,9.4v1c-5,0-5.6-5.7-6.06-10.28-.37-3.58-.68-6.67-2.63-6.67-2.21,0-2.57,4.79-2.92,9.42-.42,5.42-.81,10.53-4,10.53s-3.88-6.59-4.53-13.57c-.52-5.58-1.12-11.9-3.15-11.9s-2.84,9.35-3.4,16.19C279.51,103.82,278.9,109.78,276.46,109.78Z"/><rect class="cls-4" x="43.88" y="201.35" width="44.23" height="2.95"/><rect class="cls-4" x="43.88" y="207.57" width="44.23" height="2.95"/><rect class="cls-4" x="43.88" y="213.79" width="44.23" height="2.95"/><path class="cls-8" d="M265.93,310c.11-23.66-1.3-52.7-5.69-68v-.09l-87.61.84c-1.86,18.75-3,46.62-3.64,67.26Z"/><path class="cls-7" d="M256.59,248.21c.58,4.21,1.12,8.78,1.6,13.6.93,9.35,2,30.91,2.27,48.19h1.81a630.36,630.36,0,0,0-4.63-66.93l-.12-.48-1.75.3.1.53S256.37,246.65,256.59,248.21Z"/><path class="cls-9" d="M268.14,163.52c20.31,12.47,40.68,26.64,40.42,34.85-.4,12.4-35.39,44.91-45.14,49.19-1.24,14-6,18.5,3.77,12.37,14.44-9.05,63.61-34.28,70.69-59.79,6.65-23.94-56.48-84.86-69.17-89.77-3.56-1.37-10.47-2.11-14.42-2.39-17.55-1.24-6.54,56.78,13.85,55.54"/><path class="cls-9" d="M263.42,247.56l-17.19,11s-1.12,15.67,10,19.35c4.2-8.65,9-18.23,9-18.23"/><path class="cls-10" d="M268.71,110.37c-3.56-1.37-10.47-2.11-14.41-2.39-17.56-1.24-6.55,56.78,13.84,55.54,20.31,12.47,40.68,26.64,40.42,34.85-.4,12.4-35.39,44.91-45.14,49.19h0l-17.19,11s-1.12,15.67,10,19.35c3.05-6.28,6.41-13,8-16.27.78-.43,1.72-1,2.88-1.72,14.44-9.05,63.61-34.28,70.69-59.79C344.53,176.2,281.4,115.28,268.71,110.37Z"/><path class="cls-9" d="M147.46,239.28c23.75-1.31-12.66-57.77-34.64-96.08a42.21,42.21,0,0,0-8.89,1.78s19.26,95.64,43.53,94.3"/><path class="cls-9" d="M112.73,124.47s-5.93,1.44-6.41-2.66c-.06-.49,7.77-2.11,8.78-1.48s3.13,5.13,3.44,6.82a10.22,10.22,0,0,1-.76,5.16"/><path class="cls-8" d="M174.16,80.47a74.88,74.88,0,0,0,9,5.94l5.2-8.73-3.12,9.9c20.27,9.61,45.16,9.52,67.52,1.52-2.49-16.18-1.15-28.16-9.79-46.52-4.63-9.83-12.61-16.07-19.89-14.18-11.22-5.23-22,3.83-25.52,11.56C192.91,50.09,185,64.12,174.16,80.47"/><path class="cls-9" d="M198.44,76.78c1.37,2,5.32,4.44,8.75,6L203,108.83s-2.17,20,10.45,20.42c11.81.37,17.51-21.58,17.51-21.58L226.59,82c7.06-3,9-4.45,9.9-8,4.4-17.07,2.08-44.52-20.38-43.74-27.65,1-21.51,37.77-17.67,46.6"/><path class="cls-9" d="M196.05,58.17c-3.91-5.71-10.7,3.88.15,7.86"/><path class="cls-9" d="M238,58.14c3.52-6.18,12.73,3.62-.16,7.47"/><polygon class="cls-9" points="222.66 48.96 222.37 37.48 220.51 48.59 222.66 48.96"/><polygon class="cls-9" points="227.73 48.61 226.18 42 226.23 48.84 227.73 48.61"/><path class="cls-4" d="M268.14,163.52c20.31,12.47,40,26.51,39.75,34.71-.28,9-22.71,30.39-29.16,35.75,2.85,6.34,10.61,14,19.17,15.66,15.42-12.16,34.83-32.74,40-49.5,7.31-23.74-56.48-84.86-69.17-89.77-3.56-1.37-10.47-2.11-14.42-2.39-17.55-1.24-6.54,56.78,13.85,55.54"/><path class="cls-11" d="M167.25,117.86c-11.7,8-34.1,118.56-19.79,121.42,22.07,4.4,35.27-86,35.27-86s5.79-42.84-4.91-39.63c-3.48,1-7.13,1.82-10.57,4.17"/><path class="cls-10" d="M238.3,57.7c-.37-14.2-6.13-28.08-22.19-27.52C199.4,30.76,195,44.42,195,57.1c-3.82-3-8.58,4.94.64,8.7a46.43,46.43,0,0,0,2.76,11c1.37,2,5.32,4.44,8.75,6L203,108.83s-2.17,20,10.45,20.42c11.81.37,17.51-21.58,17.51-21.58L226.59,82c7.06-3,9-4.45,9.9-8A57.85,57.85,0,0,0,238,65.56C250.33,61.79,242,52.49,238.3,57.7Z"/><path class="cls-4" d="M210.73,72a3.6,3.6,0,1,0,3.53-2.94A3.28,3.28,0,0,0,210.73,72"/><polygon class="cls-8" points="233.93 79.56 233.93 79.56 233.78 79.11 233.78 79.11 233.69 78.86 221.26 83.02 221.01 83.1 221.41 84.31 234.1 80.07 233.93 79.56"/><g class="cls-12"><path class="cls-7" d="M234.79,64a.56.56,0,0,1,0-1.12.56.56,0,0,1,0,1.12"/><path class="cls-7" d="M231.6,62.6a.56.56,0,0,1,0-1.12.56.56,0,0,1,0,1.12"/><path class="cls-7" d="M235.92,60.14a.56.56,0,0,1,0-1.12.56.56,0,0,1,0,1.12"/><path class="cls-7" d="M229.06,64.93a.56.56,0,0,1,0-1.12.56.56,0,0,1,0,1.12"/><path class="cls-7" d="M221.48,62.33a.56.56,0,0,1,0-1.12.56.56,0,0,1,0,1.12"/><path class="cls-7" d="M226.28,61.84a.56.56,0,0,1,0-1.12.56.56,0,0,1,0,1.12"/><path class="cls-7" d="M215.23,60.48a.56.56,0,0,1,0-1.12.56.56,0,0,1,0,1.12"/><path class="cls-7" d="M210.87,59.38a.56.56,0,0,1,0-1.12.56.56,0,0,1,0,1.12"/><path class="cls-7" d="M218.88,59.38a.56.56,0,0,1,0-1.12.56.56,0,0,1,0,1.12"/><path class="cls-7" d="M200.17,63.31a.56.56,0,0,1,0-1.12.56.56,0,0,1,0,1.12"/><path class="cls-7" d="M207.86,61.82a.56.56,0,0,1,0-1.12.56.56,0,0,1,0,1.12"/><path class="cls-7" d="M204.29,60.71a.56.56,0,0,1,0-1.11.56.56,0,0,1,0,1.11"/><path class="cls-7" d="M197.39,61.2a.56.56,0,0,1,0-1.12.56.56,0,0,1,0,1.12"/></g><g class="cls-12"><path class="cls-7" d="M214.71,64.89a10,10,0,0,0,2.26.27h.26l0-1s-3.53-.34-5.09-1.29a29.49,29.49,0,0,0,2.89-8.4c.56-2.72.73-4.75.49-5h-1l-.14,1.48c-.12.83-.29,2-.56,3.28a30,30,0,0,1-3.1,8.68S211.68,64.18,214.71,64.89Z"/><path class="cls-4" d="M221,70.3l-.17-.2-.21.16-.32.21a9.1,9.1,0,0,1-1.08.53,11.86,11.86,0,0,1-4.34.78,17.29,17.29,0,0,1-5.6-1l-.25-.08-.42,1.21.25.08a18.48,18.48,0,0,0,6,1.08,11.21,11.21,0,0,0,6.54-1.8l.21-.17Z"/></g><path class="cls-8" d="M231.32,56.59a10.31,10.31,0,0,0-4-.83,7.57,7.57,0,0,0-4.55,1.42l-.22.15.75,1,.22-.15A6.37,6.37,0,0,1,227.32,57a8.89,8.89,0,0,1,3.45.71l.24.12.54-1.16Z"/><path class="cls-8" d="M208,56.75a7.22,7.22,0,0,0-4.47-1.53,7.58,7.58,0,0,0-3.31.74l-.23.13.48.89.31.12L201,57a4,4,0,0,1,.56-.21,6.78,6.78,0,0,1,2-.3,6,6,0,0,1,3.7,1.26l.21.16.77-1Z"/><polygon class="cls-7" points="97.52 97.37 98.05 97.44 98.05 97.44 98.26 97.46 98.26 97.47 98.79 97.53 99.89 88.82 98.63 88.67 97.52 97.37"/><polygon class="cls-7" points="106.03 93.1 104.96 92.41 101.06 98.41 101.28 98.56 101.28 98.56 101.91 98.96 101.91 98.96 102.13 99.11 106.03 93.1"/><polygon class="cls-7" points="92.15 91.61 91.04 92.24 94.34 98.12 94.57 97.99 94.57 97.99 95.22 97.63 95.22 97.63 95.46 97.5 92.15 91.61"/><g class="cls-13"><path class="cls-7" d="M147.46,239.28c23.75-1.31-12.66-57.77-34.64-96.08a42.21,42.21,0,0,0-8.89,1.78s19.26,95.64,43.53,94.3"/></g><path class="cls-4" d="M167.25,117.86c-11.7,8-34.1,118.56-19.79,121.42,22.07,4.4,35.27-86,35.27-86s5.79-42.84-4.91-39.63c-3.48,1-7.13,1.82-10.57,4.17"/><path class="cls-4" d="M147.46,239.28c23.56-3.3,3-32.85-19-71.16-4.56.33-19.72,15.34-19.72,15.34s18.83,58.59,38.67,55.82"/><path class="cls-4" d="M260.23,241.9c.76-14.25,5.22-48.3,7.91-78.39-13.53.79-18.25-35-13.85-55.53-4.55-.62-9.48-.82-23.19-.32H231c-4.61,14.27-30.12,11.16-28.15,1.41l.18-.27c-5.61.08-19.79,2.47-25.17,4.88,1.71,16.92-8.55,39.41-6.93,58.43,2.36,39.5,2.29,62.17,1.74,70.62,0,0,36.18,12.49,87.6-.84"/><path class="cls-8" d="M216.31,29.16C193,29.16,195,57,195,57l2.91-10.29s11,1,22.67,1.31l1.77-10.56.27,10.62,3.59.06,0-6.16,1.45,6.17c2.16,0,4.27,0,6.27-.09,1.26,3.15,4.4,9.59,4.4,9.59S240.65,29.16,216.31,29.16Z"/><path class="cls-8" d="M122,138.71l-23.33-35.3a1.6,1.6,0,0,0-2.25-.16L75.73,117.56a1.61,1.61,0,0,0-.69,2.08L96.15,152a34.1,34.1,0,0,0,2.06,3,1.87,1.87,0,0,0,2.27.25c.27-.05,20.82-14.4,20.82-14.4A1.62,1.62,0,0,0,122,138.71Z"/><path class="cls-9" d="M98.91,151.73c-.54-.74-21.3-32.55-21.3-32.55l19.61-13.56L118.66,138S99.51,151.34,98.91,151.73Z"/><path class="cls-9" d="M110.15,120.69l-3.2.79s.73,3.45,3.47,3.21c.53,0,2.15-.37,2.15-.37Z"/><g class="cls-13"><path class="cls-7" d="M112.58,124.5s-5.78,1.41-6.26-2.69c-.06-.49,7.77-2.11,8.78-1.48s3.13,5.13,3.44,6.82a10.22,10.22,0,0,1-.76,5.16"/></g><path class="cls-8" d="M110.28,124.64a22.92,22.92,0,0,0,3.35-.7.37.37,0,0,1,.24.71,23,23,0,0,1-3.25.69C110.24,125.4,110,124.68,110.28,124.64Z"/><path class="cls-7" d="M260.67,277.44s-1.1.06-1.36.06a9.79,9.79,0,0,1-6.71-2.34,14.12,14.12,0,0,1-3.79-6c-1.84-5.19-2.05-11.91-2.05-16.51,0-1.27,0-2.47,0-3.56l0-4.72H245s-.06,7-.06,8.28a68.67,68.67,0,0,0,1,12.92c1,5.09,2.81,8.69,5.44,11a11.61,11.61,0,0,0,7.88,2.79v-.53l0,.53c.3,0,1.46-.06,1.46-.06Z"/><path class="cls-14" d="M197.69,197.5,184.3,132h6L182,124.45s8.52-14.74,14.23-17.07a48.25,48.25,0,0,1,7.46-2.66l-.66,4.11v7.53Z"/><path class="cls-14" d="M231.06,197.5l16.31-64.35h-4.55l8.42-6.82s-7.51-19.57-11.37-21.61-9.78-2-9.78-2l.87,5Z"/><path class="cls-9" d="M231,107.67s3.55-.37,3.29,3.6-5.19,136.06-5.19,136.06-11.19,1.35-31.67.23c0,0,.87-132,.54-135.15s5.06-3.6,5.06-3.6-.48,8.87,12.84,8.13C227.55,116.28,231,107.67,231,107.67Z"/><path class="cls-8" d="M172.59,79.21l-.72-.7c14.23-14.65,23.79-33.1,23.89-33.28l.88.45C196.55,45.87,186.92,64.45,172.59,79.21Z"/><path class="cls-8" d="M254.41,88.52c-3.75-29.65-13-46.11-13.11-46.27l.87-.49c.09.16,9.46,16.79,13.23,46.64Z"/><path class="cls-4" d="M113,138.27h0a.4.4,0,0,0,0-.57h0l-10.64-9.08-4.9,1.73-9.75-8.45a.4.4,0,0,0-.57,0,.41.41,0,0,0,0,.58l10.11,8.76,4.89-1.73,10.29,8.78a.41.41,0,0,0,.57,0Z"/><path class="cls-4" d="M89.5,121.64a.4.4,0,0,0,0-.57.41.41,0,0,0-.3-.1l-2.92.21.2,2.87a.41.41,0,0,0,.44.38.42.42,0,0,0,.38-.44l-.15-2,2.1-.15A.41.41,0,0,0,89.5,121.64Z"/></g></g></svg>